<?xml version="1.0" standalone="no"?>
<!DOCTYPE svg PUBLIC "-//W3C//DTD SVG 20010904//EN"
 "http://www.w3.org/TR/2001/REC-SVG-20010904/DTD/svg10.dtd">
<svg version="1.0" xmlns="http://www.w3.org/2000/svg"
 width="576.000000pt" height="576.000000pt" viewBox="0 0 576.000000 576.000000"
 preserveAspectRatio="xMidYMid meet">
<metadata>
Created by potrace 1.14, written by Peter Selinger 2001-2017
</metadata>
<g transform="translate(0.000000,576.000000) scale(0.100000,-0.100000)"
fill="#000000" stroke="none">
<path d="M2760 5749 c-164 -36 -355 -197 -396 -334 -2 -5 -10 -29 -19 -53 -15
-43 -30 -185 -26 -257 1 -22 2 -53 2 -70 -3 -184 -1 -296 4 -305 3 -5 2 -10
-3 -10 -6 0 -7 -14 -2 -34 4 -19 4 -39 0 -46 -4 -7 -4 -27 0 -46 4 -19 4 -34
0 -34 -4 0 -4 -16 0 -34 4 -19 5 -37 3 -40 -9 -8 -8 -226 0 -226 5 0 5 -5 1
-11 -3 -6 -6 -41 -5 -78 1 -36 2 -79 2 -96 -2 -227 -1 -296 4 -305 3 -5 2 -10
-3 -10 -6 0 -7 -14 -2 -34 4 -19 4 -39 0 -46 -4 -7 -4 -27 0 -46 4 -19 4 -34
0 -34 -4 0 -4 -16 0 -34 4 -19 5 -37 3 -40 -9 -8 -8 -226 0 -226 5 0 5 -5 1
-11 -3 -6 -6 -41 -5 -78 1 -36 2 -79 2 -96 -2 -227 -1 -296 4 -305 3 -5 2 -10
-3 -10 -6 0 -7 -14 -2 -34 4 -19 4 -39 0 -46 -4 -7 -4 -27 0 -46 4 -19 4 -34
0 -34 -4 0 -4 -16 0 -34 4 -19 5 -37 3 -40 -9 -8 -8 -226 0 -226 5 0 5 -5 1
-11 -3 -6 -6 -41 -5 -78 1 -36 2 -79 2 -96 -2 -227 -1 -296 4 -305 3 -5 2 -10
-3 -10 -6 0 -7 -14 -2 -34 4 -19 4 -39 0 -46 -4 -7 -4 -27 0 -46 4 -19 4 -34
0 -34 -4 0 -4 -16 0 -34 4 -19 5 -37 3 -40 -9 -8 -8 -226 0 -226 5 0 5 -5 1
-11 -3 -6 -6 -41 -5 -78 1 -36 2 -79 2 -96 -2 -227 -1 -296 4 -305 3 -5 2 -10
-3 -10 -6 0 -7 -14 -2 -34 4 -19 4 -39 0 -46 -4 -7 -4 -27 0 -46 4 -19 4 -34
0 -34 -4 0 -5 -15 -1 -32 4 -18 6 -42 4 -53 -1 -11 -3 -29 -4 -40 -5 -42 13
-162 32 -219 11 -32 36 -84 56 -115 35 -54 148 -171 166 -171 5 0 21 -9 36
-19 44 -32 151 -62 241 -67 78 -5 109 -1 225 29 42 11 149 82 200 133 58 58
152 213 138 227 -3 3 -1 12 3 19 5 7 10 20 11 28 6 35 16 116 15 130 -4 55 -2
112 3 120 3 6 1 10 -5 10 -6 0 -8 5 -4 11 3 6 6 41 5 78 -2 81 -2 103 -1 166
1 28 1 55 0 60 -1 6 -1 15 0 20 1 6 1 39 1 75 -2 77 -1 126 2 160 1 14 -1 40
-4 58 -4 17 -3 32 1 32 4 0 4 15 0 34 -4 19 -4 39 0 46 4 7 4 27 0 46 -4 19
-4 34 0 34 4 0 4 16 0 34 -4 19 -5 37 -3 40 9 8 8 226 0 226 -5 0 -5 5 -1 11
3 6 6 41 5 78 -1 36 -2 80 -2 96 2 227 1 296 -4 305 -3 5 -2 10 3 10 6 0 7 14
2 34 -4 19 -4 39 0 46 4 7 4 27 0 46 -4 19 -4 34 0 34 4 0 4 15 1 33 -4 17 -4
49 0 70 3 21 2 37 -3 37 -5 0 -6 5 -2 11 3 6 6 41 5 78 -2 81 -2 103 -1 166 1
28 1 55 0 60 -1 6 -1 15 0 20 1 6 1 38 1 73 -2 99 -2 114 1 175 2 31 -1 57 -5
57 -5 0 -5 5 -1 11 3 6 6 41 5 78 -2 81 -2 103 -1 166 1 28 1 55 0 60 -1 6 -1
15 0 20 1 6 1 39 1 75 -2 77 -1 126 2 160 1 14 -1 40 -4 58 -4 17 -3 32 1 32
4 0 4 15 0 34 -4 19 -4 39 0 46 4 7 4 27 0 46 -4 19 -4 34 0 34 4 0 4 16 0 34
-4 19 -5 37 -3 40 9 8 8 226 0 226 -5 0 -5 5 -1 11 3 6 6 41 5 78 -1 36 -2 80
-2 96 2 227 1 296 -4 305 -3 5 -2 10 3 10 6 0 7 14 2 34 -4 19 -4 39 0 46 4 7
4 27 0 46 -4 19 -4 34 0 34 4 0 5 15 1 33 -4 17 -6 41 -4 52 1 11 3 29 4 40 5
42 -13 162 -32 219 -53 157 -190 293 -350 346 -74 24 -229 34 -299 19z"/>
<path d="M755 4640 c-4 -6 -10 -8 -14 -6 -12 8 -93 -13 -161 -41 -218 -91
-354 -314 -337 -556 15 -224 169 -417 392 -492 61 -20 213 -28 275 -14 25 6
50 12 55 13 24 5 113 49 150 74 49 33 138 125 156 161 7 14 18 33 25 41 6 8
21 44 34 80 37 108 34 293 -6 374 -8 16 -14 33 -14 38 0 18 -70 118 -113 162
-93 94 -214 150 -349 162 -40 3 -76 8 -80 10 -4 2 -9 0 -13 -6z"/>
<path d="M4835 4625 c-27 -6 -60 -17 -72 -23 -13 -7 -23 -10 -23 -8 0 3 -17
-4 -37 -15 -195 -108 -315 -316 -303 -524 1 -16 2 -42 1 -57 -1 -32 -1 -113 0
-160 0 -18 0 -53 0 -78 0 -25 0 -52 0 -60 0 -8 0 -44 0 -80 0 -82 0 -117 -1
-180 0 -27 0 -58 0 -67 0 -10 0 -29 1 -43 1 -31 1 -66 0 -102 -1 -16 -1 -40
-2 -55 -1 -31 -1 -58 1 -123 1 -25 1 -65 1 -90 0 -25 0 -52 0 -60 0 -8 0 -44
0 -80 -1 -142 -1 -220 0 -262 0 -18 0 -53 0 -78 0 -25 0 -52 0 -60 0 -8 0 -44
0 -80 0 -82 0 -117 -1 -180 0 -27 0 -58 0 -67 0 -10 0 -29 1 -43 1 -31 1 -66
0 -103 -1 -15 -1 -39 -2 -55 -1 -30 -1 -57 1 -122 1 -25 1 -65 1 -90 0 -25 0
-52 0 -60 0 -8 0 -44 0 -80 -1 -142 -1 -220 0 -262 0 -18 0 -53 0 -78 0 -25 0
-52 0 -60 0 -8 0 -44 0 -80 0 -82 0 -117 -1 -180 0 -27 0 -57 0 -65 0 -8 0
-22 0 -30 0 -8 0 -37 0 -65 0 -27 -1 -62 -1 -77 -2 -70 11 -202 25 -246 46
-146 154 -272 289 -336 45 -22 105 -44 132 -50 71 -14 221 -8 275 13 25 9 50
18 55 20 34 10 67 29 120 69 95 71 157 157 196 272 l24 70 0 1870 0 1870 -23
64 c-60 166 -188 294 -352 351 -76 27 -225 34 -305 15z"/>
<path d="M691 3189 c-57 -11 -129 -38 -163 -61 -14 -10 -30 -18 -35 -18 -4 0
-31 -22 -59 -48 -74 -68 -133 -149 -150 -207 -2 -5 -11 -30 -21 -55 -17 -42
-18 -113 -20 -1180 -3 -1253 -6 -1178 61 -1316 61 -123 178 -225 316 -274 84
-31 268 -34 340 -6 25 9 50 18 55 20 97 29 247 170 291 274 41 99 58 196 55
327 0 17 0 68 0 115 1 47 0 92 0 100 0 8 0 35 0 60 0 25 1 52 0 60 0 8 0 53 0
100 1 47 0 92 0 100 0 8 0 35 0 60 0 25 1 52 0 60 0 8 0 53 0 100 1 47 0 92 0
100 0 8 0 35 0 60 0 25 1 52 0 60 0 8 0 53 0 100 1 47 0 94 -1 105 -2 28 -2
29 -1 130 1 184 1 243 0 288 0 17 0 52 0 77 0 25 0 52 0 60 0 8 0 44 0 80 0
36 0 79 0 95 -1 17 0 41 2 55 4 45 -12 154 -32 214 -53 156 -189 292 -349 346
-72 24 -213 34 -289 19z"/>
</g>
</svg>
